<svg xmlns="http://www.w3.org/2000/svg" width="420" height="420" viewBox="0 0 420 420" role="img" aria-label="Community support illustration">
  <defs>
    <linearGradient id="g" x1="0" x2="1" y1="0" y2="1">
      <stop offset="0" stop-color="#6d28d9"/>
      <stop offset="1" stop-color="#4c1d95"/>
    </linearGradient>
  </defs>
  <rect x="0" y="0" width="420" height="420" rx="16" fill="#f3f4f6"/>
  <circle cx="210" cy="130" r="60" fill="url(#g)" opacity="0.15"/>
  <g transform="translate(60,220)">
    <path d="M0 40 C20 10, 60 10, 80 40" stroke="#6d28d9" stroke-width="8" fill="none" stroke-linecap="round"/>
    <path d="M80 40 C100 10, 140 10, 160 40" stroke="#6d28d9" stroke-width="8" fill="none" stroke-linecap="round"/>
    <path d="M160 40 C180 10, 220 10, 240 40" stroke="#6d28d9" stroke-width="8" fill="none" stroke-linecap="round"/>
    <path d="M240 40 C260 10, 300 10, 320 40" stroke="#6d28d9" stroke-width="8" fill="none" stroke-linecap="round"/>
    <circle cx="0" cy="40" r="8" fill="#6d28d9"/>
    <circle cx="80" cy="40" r="8" fill="#6d28d9"/>
    <circle cx="160" cy="40" r="8" fill="#6d28d9"/>
    <circle cx="240" cy="40" r="8" fill="#6d28d9"/>
    <circle cx="320" cy="40" r="8" fill="#6d28d9"/>
    <g fill="#6d28d9">
      <circle cx="0" cy="0" r="14"/>
      <circle cx="80" cy="0" r="14"/>
      <circle cx="160" cy="0" r="14"/>
      <circle cx="240" cy="0" r="14"/>
      <circle cx="320" cy="0" r="14"/>
    </g>
  </g>
  <rect x="40" y="340" width="340" height="36" rx="10" fill="url(#g)" opacity="0.2"/>
</svg>